HIERARCHY
ROOT Hips
{
	OFFSET 0.000000 0.000000 0.000000
	CHANNELS 6 Xposition Yposition Zposition Zrotation Yrotation Xrotation 
	JOINT LHipJoint
	{
		OFFSET 0.000000 0.000000 0.000000
		CHANNELS 3 Zrotation Yrotation Xrotation
		JOINT LeftUpLeg
		{
			OFFSET 1.363060 -1.794630 0.839290
			CHANNELS 3 Zrotation Yrotation Xrotation
			JOINT LeftLeg
			{
				OFFSET 2.448110 -6.726130 0.000000
				CHANNELS 3 Zrotation Yrotation Xrotation
				JOINT LeftFoot
				{
					OFFSET 2.562200 -7.039590 0.000000
					CHANNELS 3 Zrotation Yrotation Xrotation
					JOINT LeftToeBase
					{
						OFFSET 0.157640 -0.433110 2.322550
						CHANNELS 3 Zrotation Yrotation Xrotation
						End Site
						{
							OFFSET 0.000000 0.000000 0.000000
						}
					}
				}
			}
		}
	}
	JOINT RHipJoint
	{
		OFFSET 0.000000 0.000000 0.000000
		CHANNELS 3 Zrotation Yrotation Xrotation
		JOINT RightUpLeg
		{
			OFFSET -1.305520 -1.794630 0.839290
			CHANNELS 3 Zrotation Yrotation Xrotation
			JOINT RightLeg
			{
				OFFSET -2.542530 -6.985550 0.000000
				CHANNELS 3 Zrotation Yrotation Xrotation
				JOINT RightFoot
				{
					OFFSET -2.568260 -7.056230 0.000000
					CHANNELS 3 Zrotation Yrotation Xrotation
					JOINT RightToeBase
					{
						OFFSET -0.164730 -0.452590 2.363150
						CHANNELS 3 Zrotation Yrotation Xrotation
						End Site
						{
							OFFSET 0.000000 0.000000 0.000000
						}
					}
				}
			}
		}
	}
	JOINT LowerBack
	{
		OFFSET 0.000000 0.000000 0.000000
		CHANNELS 3 Zrotation Yrotation Xrotation
		JOINT Spine
		{
			OFFSET 0.028270 2.035590 -0.193380
			CHANNELS 3 Zrotation Yrotation Xrotation
			JOINT Spine1
			{
				OFFSET 0.056720 2.048850 -0.042750
				CHANNELS 3 Zrotation Yrotation Xrotation
				JOINT Neck
				{
					OFFSET 0.000000 0.000000 0.000000
					CHANNELS 3 Zrotation Yrotation Xrotation
					JOINT Neck1
					{
						OFFSET -0.054170 1.746240 0.172020
						CHANNELS 3 Zrotation Yrotation Xrotation
						JOINT Head
						{
							OFFSET 0.104070 1.761360 -0.123970
							CHANNELS 3 Zrotation Yrotation Xrotation
							End Site
							{
								OFFSET 0.000000 0.000000 0.000000
							}
						}
					}
				}
				JOINT LeftShoulder
				{
					OFFSET 0.000000 0.000000 0.000000
					CHANNELS 3 Zrotation Yrotation Xrotation
					JOINT LeftArm
					{
						OFFSET 3.362410 1.200890 -0.311210
						CHANNELS 3 Zrotation Yrotation Xrotation
						JOINT LeftForeArm
						{
							OFFSET 4.983000 -0.000000 -0.000000
							CHANNELS 3 Zrotation Yrotation Xrotation
							JOINT LeftHand
							{
								OFFSET 3.483560 -0.000000 -0.000000
								CHANNELS 3 Zrotation Yrotation Xrotation
								JOINT LeftFingerBase
								{
									OFFSET 0.000000 0.000000 0.000000
									CHANNELS 3 Zrotation Yrotation Xrotation
									JOINT LeftHandIndex1
									{
										OFFSET 0.715260 -0.000000 -0.000000
										CHANNELS 3 Zrotation Yrotation Xrotation
										End Site
										{
											OFFSET 0.000000 0.000000 0.000000
										}
									}
								}
								JOINT LThumb
								{
									OFFSET 0.000000 0.000000 0.000000
									CHANNELS 3 Zrotation Yrotation Xrotation
									End Site
									{
										OFFSET 0.000000 0.000000 0.000000
									}
								}
							}
						}
					}
				}
				JOINT RightShoulder
				{
					OFFSET 0.000000 0.000000 0.000000
					CHANNELS 3 Zrotation Yrotation Xrotation
					JOINT RightArm
					{
						OFFSET -3.136600 1.374050 -0.404650
						CHANNELS 3 Zrotation Yrotation Xrotation
						JOINT RightForeArm
						{
							OFFSET -5.241900 -0.000000 -0.000000
							CHANNELS 3 Zrotation Yrotation Xrotation
							JOINT RightHand
							{
								OFFSET -3.444170 -0.000000 -0.000000
								CHANNELS 3 Zrotation Yrotation Xrotation
								JOINT RightFingerBase
								{
									OFFSET 0.000000 0.000000 0.000000
									CHANNELS 3 Zrotation Yrotation Xrotation
									JOINT RightHandIndex1
									{
										OFFSET -0.622530 -0.000000 -0.000000
										CHANNELS 3 Zrotation Yrotation Xrotation
										End Site
										{
											OFFSET 0.000000 0.000000 0.000000
										}
									}
								}
								JOINT RThumb
								{
									OFFSET 0.000000 0.000000 0.000000
									CHANNELS 3 Zrotation Yrotation Xrotation
									End Site
									{
										OFFSET 0.000000 0.000000 0.000000
									}
								}
							}
						}
					}
				}
			}
		}
	}
}
MOTION
Frames: 12
Frame Time: 0.016667
-1.605261 17.548680 24.288234 -13.191406 8.212834 -19.420510 -41.836102 51.937087 -33.480372 160.683463 -77.159612 -165.965593 -16.969765 -89.567092 7.134431 -19.179144 -2.201020 -44.810848 0.000000 0.000000 0.000000 23.701846 -48.270324 9.290066 19.298088 67.043418 -30.544706 -45.043937 -24.715837 104.346624 60.097278 -63.987069 -94.579354 0.000000 0.000000 0.000000 10.998765 -5.662268 44.373454 3.990379 3.795426 2.363253 -3.404765 -2.539166 -27.686115 -7.350151 -6.743965 22.878547 5.280556 -1.614343 6.627730 0.000000 0.000000 0.000000 -13.625644 27.873531 2.306353 -71.242705 4.389812 11.569413 -25.277051 -89.959028 -63.218639 70.893010 30.855530 -13.681912 141.503109 -85.498924 180.000000 0.000000 0.000000 0.000000 0.000000 0.000000 0.000000 15.364506 -27.920523 -2.632135 44.721960 0.716984 16.940415 165.698743 56.897222 173.293389 32.439545 -59.849820 -7.837179 45.627491 -51.324332 0.000000 0.000000 0.000000 0.000000 0.000000 0.000000 0.000000 
-1.630378 17.568044 24.466435 -1.934253 -6.815116 5.622923 -36.790101 8.522557 5.690772 -174.215444 -59.922324 -97.748511 -148.762212 53.221040 -131.030412 -74.485066 -67.190152 63.337659 0.000000 0.000000 0.000000 19.693272 -28.918911 -6.886581 18.731953 73.140672 -35.902186 -27.347538 -35.719512 119.413838 -24.870610 32.818577 7.475036 0.000000 0.000000 0.000000 -1.408494 12.300585 21.712619 3.859342 4.182039 1.239322 -3.068450 -2.576725 -27.993824 -6.470853 -7.408276 23.297547 5.634066 -1.665569 7.052660 0.000000 0.000000 0.000000 -14.077881 28.180441 1.322105 -70.311054 5.196503 9.271038 -23.624720 -89.370253 -61.124203 68.644875 28.719303 -10.007197 142.649491 -88.977071 180.000000 0.000000 0.000000 0.000000 0.000000 0.000000 0.000000 15.346377 -28.125627 -2.288494 44.355332 0.263257 16.923979 165.658664 56.773908 173.358165 32.446341 -59.726504 -7.760243 45.512607 -51.276963 0.000000 0.000000 0.000000 0.000000 0.000000 0.000000 0.000000 
-1.651818 17.589447 24.641962 5.868541 -23.234356 0.776958 -16.621593 -6.651224 20.500209 -158.083339 -62.475165 -110.194877 -104.817149 14.198105 148.032541 -93.840258 -5.367540 -99.959518 0.000000 0.000000 0.000000 17.954969 -20.638114 -21.996967 -169.827505 89.688661 145.243848 -134.986187 19.385339 114.380626 -110.852624 29.817774 129.621686 0.000000 0.000000 0.000000 -8.543674 17.612543 21.925846 -0.773192 8.503043 0.862359 -3.621634 1.048131 -28.880807 -8.332925 -5.156079 22.015664 4.807280 -1.489615 6.512671 0.000000 0.000000 0.000000 -12.315732 29.675731 0.464565 -69.250067 5.126666 8.775769 -24.387267 -89.896969 -60.883219 69.733749 26.079812 -9.545645 144.293778 -89.226216 180.000000 0.000000 0.000000 0.000000 0.000000 0.000000 0.000000 16.300541 -27.464478 -1.980338 45.823315 0.557117 17.665171 165.158163 57.061132 173.326984 32.495363 -59.918011 -7.782144 45.621101 -51.420048 0.000000 0.000000 0.000000 0.000000 0.000000 0.000000 0.000000 
-1.669606 17.612162 24.813787 8.970960 -35.424332 0.107973 -2.580357 -15.116316 37.889987 -133.156050 -69.914153 -145.955201 -92.551719 59.262714 -170.493912 -123.258819 -20.595759 -82.727001 0.000000 0.000000 0.000000 13.615405 -17.440264 -12.922331 -162.452324 85.113167 168.303429 -136.723962 38.346907 119.142726 96.047428 -69.007728 50.695410 0.000000 0.000000 0.000000 -16.068949 22.645328 14.893445 1.531640 11.277660 2.398129 -3.040392 3.766201 -25.922257 -7.479621 -5.323941 23.509152 5.001353 -1.462778 7.179974 0.000000 0.000000 0.000000 -11.852372 29.516573 2.457853 -72.510856 3.455866 12.885557 159.583490 -89.945796 119.988789 72.403234 46.131955 -11.073157 -42.194889 -88.808707 -0.000000 0.000000 0.000000 0.000000 0.000000 0.000000 0.000000 16.570449 -23.938491 -1.842461 45.278681 1.563620 16.995025 165.481172 57.430768 173.402184 32.401288 -59.644828 -7.673047 45.333643 -51.292048 0.000000 0.000000 0.000000 0.000000 0.000000 0.000000 0.000000 
-1.683122 17.635778 24.981901 20.209407 -28.491777 -2.687582 -15.695567 -6.164886 21.407583 -138.187409 -66.132614 -116.937277 -141.314893 -75.099865 -149.716420 -139.105291 -62.129489 176.341894 0.000000 0.000000 0.000000 43.148292 -41.270133 -18.714370 0.381287 55.570018 -48.664166 -37.874649 78.864638 116.692049 139.479696 78.877424 21.657899 0.000000 0.000000 0.000000 -22.930767 24.987168 16.352605 -0.678823 8.065359 1.382292 -3.132901 -0.395606 -27.338639 -7.773280 -5.027180 24.762452 4.913708 -1.499950 7.624823 0.000000 0.000000 0.000000 -13.067221 27.978544 0.269013 -68.529408 5.538821 7.908221 -20.499646 -89.419911 -56.484830 70.332238 28.284638 -2.996394 -34.851787 -82.613154 -0.000000 0.000000 0.000000 0.000000 0.000000 0.000000 0.000000 16.277662 -27.231428 -1.999578 45.236767 0.631411 17.643600 164.548771 57.306899 173.865183 32.695157 -59.883348 -7.140462 45.058241 -51.840278 0.000000 0.000000 0.000000 0.000000 0.000000 0.000000 0.000000 
-1.693710 17.659317 25.144889 1.558257 -16.472750 4.122741 -23.304110 4.827648 2.538965 -179.229539 -50.804366 -109.543758 -46.437861 -88.458283 48.202781 46.051934 -28.005682 90.947496 0.000000 0.000000 0.000000 17.611134 -25.554917 -6.567717 24.115224 72.008125 -9.591390 -71.961550 -34.676678 127.444395 -46.516070 -38.607451 -41.168276 0.000000 0.000000 0.000000 -4.605742 15.484437 21.884394 0.740902 6.111428 -1.117185 -2.806666 -0.611115 -28.610123 -7.256174 -8.897784 21.993572 5.776784 -1.939536 6.995811 0.000000 0.000000 0.000000 -12.589577 29.228832 0.544069 -69.230148 5.965343 9.146853 151.341070 -89.185824 115.042460 65.617797 15.537715 -6.394081 -30.728991 -87.041559 -0.000000 0.000000 0.000000 0.000000 0.000000 0.000000 0.000000 15.920391 -27.957334 -1.875507 44.925190 0.081136 17.113256 165.474740 56.836516 173.453740 32.203975 -59.134159 -7.483302 44.781211 -51.067578 -0.000000 0.000000 0.000000 0.000000 0.000000 0.000000 0.000000 
-1.701708 17.682499 25.302879 1.759990 -19.170318 9.595231 -26.767200 -4.468346 17.781433 -170.360590 -54.254031 -86.184209 34.923344 70.054102 -14.709658 32.803432 74.530832 -116.020716 0.000000 0.000000 0.000000 16.883226 -19.457253 -16.508774 32.307346 72.564405 -12.666562 -77.116697 -15.328724 114.767284 87.326511 -63.137789 16.539776 0.000000 0.000000 0.000000 -6.870970 17.120901 14.176017 -1.259028 5.769322 0.338162 -1.480103 -0.305470 -27.480985 -6.004099 -10.355295 24.916773 6.506320 -2.157055 7.991242 0.000000 0.000000 0.000000 -12.648525 28.908382 -0.584704 -69.816862 5.159620 7.081151 -24.266980 -89.497947 -61.401577 64.411812 19.581386 -2.600904 -32.097427 -82.358174 -0.000000 0.000000 0.000000 0.000000 0.000000 0.000000 0.000000 16.127643 -26.970986 -1.657665 44.749220 0.299059 17.272544 165.230866 57.469538 173.527051 32.258600 -59.091690 -7.284228 44.581518 -51.201099 -0.000000 0.000000 0.000000 0.000000 0.000000 0.000000 0.000000 
-1.707996 17.704971 25.455807 21.389478 -34.713822 -17.216293 -39.813367 10.356851 7.798075 -173.951932 -84.404058 -115.832821 -27.982994 -28.243835 39.871464 5.742030 -54.247196 -122.610078 0.000000 0.000000 0.000000 88.005675 -41.767854 -39.653855 5.132660 -41.684945 -53.991868 14.443674 -33.653673 120.229184 -151.016975 -8.885895 140.731198 0.000000 0.000000 0.000000 -21.183432 21.932041 27.316505 -2.569063 10.233531 4.164052 -1.866902 3.932377 -30.384545 -6.869264 -9.842309 23.866472 6.328455 -2.103728 7.377053 0.000000 0.000000 0.000000 -11.631721 30.693062 -3.081416 -68.479095 5.643143 4.137826 157.866245 -89.299976 121.493665 62.912479 13.733221 2.982584 -29.422092 -76.920249 -0.000002 0.000000 0.000000 0.000000 0.000000 0.000000 0.000000 16.912942 -25.656729 -1.033182 44.878595 0.147530 17.389879 164.984327 57.469249 173.643123 32.074847 -59.089393 -7.238379 44.338444 -51.245404 -0.000000 0.000000 0.000000 0.000000 0.000000 0.000000 0.000000 
-1.712970 17.726622 25.603848 -15.624874 4.265637 -37.918022 -48.096416 71.438236 -56.251737 -9.984412 -50.327956 -6.992440 -45.142099 0.928074 -18.106479 74.873489 -68.992237 -94.485907 0.000000 0.000000 0.000000 37.366867 -67.785214 -1.072510 0.673262 11.414151 -33.229154 0.828511 46.638547 116.466120 -169.131750 61.064588 -136.071813 0.000000 0.000000 0.000000 6.556568 -6.498850 69.101018 8.664689 4.777939 3.551319 -3.712356 -0.177125 -29.805956 -6.486811 -9.975324 20.512645 6.102379 -1.958982 6.732112 0.000000 0.000000 0.000000 -14.126254 28.508335 2.197275 -70.123990 6.496398 11.724401 144.888614 -88.882059 108.428517 57.466472 12.958261 -11.078119 147.720023 -88.921750 -180.000000 0.000000 0.000000 0.000000 0.000000 0.000000 0.000000 15.830031 -25.814107 -1.344872 42.960869 0.083868 17.112193 164.934410 55.335849 174.144537 31.908570 -58.188632 -6.635508 43.273499 -50.949167 -0.000000 0.000000 0.000000 0.000000 0.000000 0.000000 0.000000 
-1.716824 17.747679 25.747916 3.624761 -3.245844 -11.767417 -22.444383 47.762478 -47.591639 168.977827 -19.519198 -155.396962 -169.443042 12.456279 -105.562626 72.911542 -7.143322 -30.232149 0.000000 0.000000 0.000000 20.581227 -55.275364 -10.261249 34.554877 52.308559 -7.947080 -87.804548 -18.970157 127.604974 -68.865278 -39.882819 141.463314 0.000000 0.000000 0.000000 0.483498 6.288914 40.856376 -3.371055 5.595485 0.268893 -1.987734 -2.526054 -31.638420 -8.594787 -5.418365 20.192656 5.190128 -1.547347 6.645634 0.000000 0.000000 0.000000 -10.849670 28.315228 -2.138605 -65.702514 7.913303 5.103529 152.562585 -85.952705 117.496816 69.339603 9.792979 13.269219 -24.107533 -58.417796 0.000000 0.000000 0.000000 0.000000 0.000000 0.000000 0.000000 15.447427 -31.283319 -1.846009 45.729618 -1.279238 17.655948 164.861074 57.055580 173.703577 31.659555 -58.712398 -7.174518 43.740694 -51.047190 -0.000000 0.000000 0.000000 0.000000 0.000000 0.000000 0.000000 
-1.719775 17.768144 25.888234 2.831912 -14.857451 -3.192896 -20.513540 21.255060 -20.454168 -154.864614 -24.630769 -127.989386 -100.248313 -30.728776 -165.612853 -24.422722 -14.886173 -105.924388 0.000000 0.000000 0.000000 17.605020 -39.164251 -11.242099 32.330538 74.874897 -0.641659 -47.807706 -35.259168 111.949341 9.965398 78.018077 62.933100 0.000000 0.000000 0.000000 -1.518179 10.531846 33.056284 -3.624292 8.854608 -0.529118 -2.097360 0.697608 -31.448360 -8.896591 -5.615674 20.117848 5.132477 -1.596582 6.621366 0.000000 0.000000 0.000000 -9.710587 30.093114 -2.876274 -65.956441 7.954921 4.330080 151.702482 -85.048249 116.548349 72.212532 9.895981 20.049972 -23.283146 -47.273549 0.000000 0.000000 0.000000 0.000000 0.000000 0.000000 0.000000 15.595965 -30.116162 -1.409987 45.797838 -1.145935 18.078317 164.530160 57.519895 173.709612 31.609645 -58.670063 -7.085494 43.558658 -51.110364 -0.000000 0.000000 0.000000 0.000000 0.000000 0.000000 0.000000 
-1.722376 17.788135 26.025622 9.430084 -18.358209 -1.345078 -7.501273 8.524389 -2.958499 -128.707149 -57.081691 -141.902350 164.537602 -67.105976 -86.694481 87.070352 30.010309 165.888725 0.000000 0.000000 0.000000 23.721292 -33.938365 -22.202858 36.074436 65.968104 -1.863253 -29.451259 -60.435456 117.169714 17.433793 43.175424 122.794128 0.000000 0.000000 0.000000 -12.720071 15.018909 24.762288 -0.720704 7.033304 -0.107755 -0.695973 0.011642 -30.934879 -6.849580 -10.441730 21.318408 6.514590 -2.108214 7.148017 0.000000 0.000000 0.000000 -10.082335 29.704481 -2.728117 -67.117677 8.442214 5.729027 147.583547 -84.878308 113.173742 70.550659 7.891987 19.370759 -21.820699 -45.554502 -0.000000 0.000000 0.000000 0.000000 0.000000 0.000000 0.000000 15.143134 -28.441815 -1.085800 44.342580 -1.018801 17.704243 164.541105 57.400253 173.862636 31.608820 -58.403706 -6.786579 43.135824 -51.135150 -0.000000 0.000000 0.000000 0.000000 0.000000 0.000000 0.000000 
